<svg width="28" height="12" viewBox="0 0 28 12" fill="none" xmlns="http://www.w3.org/2000/svg">
<path d="M5.92002 2.08159C6.23102 1.69261 6.44205 1.17032 6.38639 0.636597C5.93115 0.659234 5.3756 0.93694 5.05397 1.32623C4.76518 1.65959 4.50958 2.20375 4.57621 2.7151C5.08725 2.75943 5.59782 2.45966 5.92002 2.08159Z" fill="#000008"/>
<path d="M6.38061 2.81495C5.63845 2.77074 5.00744 3.23615 4.65303 3.23615C4.29842 3.23615 3.75569 2.83722 3.16869 2.84797C2.40467 2.8592 1.69574 3.29118 1.30804 3.97824C0.510587 5.35269 1.09759 7.39149 1.87307 8.5109C2.24966 9.06471 2.70351 9.6745 3.30153 9.65259C3.86656 9.63042 4.08803 9.28672 4.77485 9.28672C5.46117 9.28672 5.66066 9.65259 6.25878 9.64151C6.87905 9.63042 7.26682 9.08742 7.64341 8.53307C8.07543 7.90176 8.25228 7.29217 8.2634 7.25871C8.25228 7.24762 7.06736 6.79306 7.05637 5.43003C7.04518 4.28875 7.98667 3.74589 8.03098 3.71222C7.49931 2.92589 6.6686 2.83722 6.38061 2.81495Z" fill="#000008"/>
<path d="M12.8427 1.2704C14.4557 1.2704 15.579 2.3823 15.579 4.00113C15.579 5.62575 14.4326 6.74342 12.8022 6.74342H11.0163V9.58361H9.7259V1.2704L12.8427 1.2704ZM11.0163 5.66031H12.4969C13.6203 5.66031 14.2597 5.05546 14.2597 4.00691C14.2597 2.95847 13.6203 2.35929 12.5026 2.35929H11.0163V5.66031Z" fill="#000008"/>
<path d="M15.9161 7.86108C15.9161 6.80096 16.7284 6.15001 18.1688 6.06933L19.8278 5.97143V5.50483C19.8278 4.83076 19.3727 4.42749 18.6124 4.42749C17.8921 4.42749 17.4427 4.77309 17.3333 5.3147H16.1581C16.2272 4.22003 17.1604 3.4135 18.6584 3.4135C20.1274 3.4135 21.0664 4.19125 21.0664 5.40682V9.58359H19.8738V8.58693H19.8451C19.4938 9.261 18.7275 9.68727 17.9325 9.68727C16.7457 9.68727 15.9161 8.94986 15.9161 7.86108ZM19.8278 7.3138V6.83564L18.3357 6.92776C17.5925 6.97965 17.172 7.30802 17.172 7.82652C17.172 8.35646 17.6098 8.70216 18.2781 8.70216C19.148 8.70216 19.8278 8.10299 19.8278 7.3138Z" fill="#000008"/>
<path d="M22.1923 11.8132V10.8049C22.2843 10.8279 22.4916 10.8279 22.5954 10.8279C23.1715 10.8279 23.4826 10.586 23.6727 9.96385C23.6727 9.95229 23.7822 9.59515 23.7822 9.58937L21.5931 3.52295H22.941L24.4736 8.45447H24.4965L26.0291 3.52295H27.3426L25.0726 9.9004C24.5543 11.3696 23.9551 11.8419 22.6992 11.8419C22.5954 11.8419 22.2843 11.8304 22.1923 11.8132Z" fill="#000008"/>
</svg>
