<svg width="29" height="13" viewBox="0 0 29 13" fill="none" xmlns="http://www.w3.org/2000/svg">
<path d="M13.751 9.61418H12.7025V1.45593H15.482C16.1864 1.45593 16.7871 1.69074 17.2785 2.16036C17.7809 2.62998 18.0321 3.20335 18.0321 3.88047C18.0321 4.57398 17.7809 5.14735 17.2785 5.6115C16.7925 6.07566 16.1919 6.30501 15.482 6.30501H13.751V9.61418ZM13.751 2.46069V5.30571H15.5038C15.9188 5.30571 16.2683 5.16373 16.5414 4.88523C16.8198 4.60674 16.9618 4.26818 16.9618 3.88593C16.9618 3.50914 16.8198 3.17604 16.5414 2.89755C16.2683 2.60813 15.9243 2.46615 15.5038 2.46615H13.751V2.46069Z" fill="#3C4043"/>
<path d="M20.7732 3.84771C21.5487 3.84771 22.1603 4.05521 22.608 4.47022C23.0558 4.88523 23.2797 5.45314 23.2797 6.17395V9.61418H22.2804V8.83876H22.2367C21.8053 9.47766 21.2265 9.79438 20.5057 9.79438C19.8886 9.79438 19.3753 9.61418 18.9603 9.24831C18.5453 8.88245 18.3378 8.42921 18.3378 7.88314C18.3378 7.30431 18.5562 6.84561 18.9931 6.50705C19.4299 6.16303 20.0142 5.99375 20.7405 5.99375C21.363 5.99375 21.8763 6.10843 22.2749 6.33777V6.0975C22.2749 5.73164 22.1329 5.42584 21.8435 5.16919C21.5541 4.91254 21.2156 4.78694 20.8279 4.78694C20.2436 4.78694 19.7794 5.03267 19.4408 5.52959L18.518 4.95076C19.0258 4.21357 19.7794 3.84771 20.7732 3.84771ZM19.419 7.89953C19.419 8.17256 19.5337 8.40191 19.7685 8.58211C19.9978 8.76231 20.2709 8.85514 20.5821 8.85514C21.0244 8.85514 21.4176 8.69132 21.7616 8.36368C22.1056 8.03604 22.2804 7.6538 22.2804 7.21148C21.9527 6.95483 21.4995 6.82377 20.9152 6.82377C20.4893 6.82377 20.1343 6.92753 19.8504 7.12957C19.561 7.34254 19.419 7.59919 19.419 7.89953Z" fill="#3C4043"/>
<path d="M28.9807 4.02796L25.4858 12.0661H24.4046L25.7043 9.25383L23.3999 4.02796H24.5412L26.2012 8.0361H26.223L27.8394 4.02796H28.9807Z" fill="#3C4043"/>
<path d="M9.58059 5.64427C9.58059 5.30243 9.55001 4.97534 9.49322 4.6608H5.09849V6.46283L7.6295 6.46337C7.52684 7.06295 7.19647 7.57407 6.69027 7.91482V9.08395H8.19686C9.07657 8.26976 9.58059 7.06623 9.58059 5.64427Z" fill="#4285F4"/>
<path d="M6.6908 7.91488C6.27143 8.19774 5.73137 8.3632 5.09957 8.3632C3.87912 8.3632 2.84378 7.54082 2.473 6.4323H0.918898V7.63802C1.68885 9.16592 3.27135 10.2144 5.09957 10.2144C6.36316 10.2144 7.42471 9.79881 8.1974 9.08346L6.6908 7.91488Z" fill="#34A853"/>
<path d="M2.32661 5.53778C2.32661 5.22652 2.37848 4.92564 2.47295 4.64277V3.43706H0.918851C0.600495 4.06886 0.421387 4.78202 0.421387 5.53778C0.421387 6.29353 0.601041 7.0067 0.918851 7.6385L2.47295 6.43278C2.37848 6.14992 2.32661 5.84904 2.32661 5.53778Z" fill="#FABB05"/>
<path d="M5.09957 2.71189C5.78925 2.71189 6.40685 2.94943 6.89448 3.41358L8.22961 2.07954C7.41871 1.32433 6.36153 0.860718 5.09957 0.860718C3.27189 0.860718 1.6888 1.90916 0.918851 3.43706L2.47295 4.64277C2.84373 3.53426 3.87912 2.71189 5.09957 2.71189Z" fill="#E94235"/>
</svg>
